<?xml version="1.0" encoding="UTF-8" standalone="no"?>
<!-- Created with Inkscape (http://www.inkscape.org/) -->

<svg
   xmlns:dc="http://purl.org/dc/elements/1.1/"
   xmlns:cc="http://creativecommons.org/ns#"
   xmlns:rdf="http://www.w3.org/1999/02/22-rdf-syntax-ns#"
   xmlns:svg="http://www.w3.org/2000/svg"
   xmlns="http://www.w3.org/2000/svg"
   xmlns:sodipodi="http://sodipodi.sourceforge.net/DTD/sodipodi-0.dtd"
   xmlns:inkscape="http://www.inkscape.org/namespaces/inkscape"
   width="1024"
   height="1024"
   id="svg3113"
   version="1.1"
   inkscape:version="0.48.2 r9819"
   sodipodi:docname="New document 7">
  <defs
     id="defs3115" />
  <sodipodi:namedview
     id="base"
     pagecolor="#ffffff"
     bordercolor="#666666"
     borderopacity="1.0"
     inkscape:pageopacity="0.0"
     inkscape:pageshadow="2"
     inkscape:zoom="0.23395291"
     inkscape:cx="397.77129"
     inkscape:cy="161.44149"
     inkscape:document-units="px"
     inkscape:current-layer="layer1"
     showgrid="true"
     inkscape:window-width="865"
     inkscape:window-height="682"
     inkscape:window-x="396"
     inkscape:window-y="4"
     inkscape:window-maximized="0">
    <inkscape:grid
       type="xygrid"
       id="grid3121"
       empspacing="2"
       visible="true"
       enabled="true"
       snapvisiblegridlinesonly="true"
       spacingx="16px"
       spacingy="16px" />
  </sodipodi:namedview>
  <metadata
     id="metadata3118">
    <rdf:RDF>
      <cc:Work
         rdf:about="">
        <dc:format>image/svg+xml</dc:format>
        <dc:type
           rdf:resource="http://purl.org/dc/dcmitype/StillImage" />
        <dc:title></dc:title>
      </cc:Work>
    </rdf:RDF>
  </metadata>
  <g
     inkscape:label="Layer 1"
     inkscape:groupmode="layer"
     id="layer1"
     transform="translate(0,-28.36218)">
    <path
       inkscape:connector-curvature="0"
       id="path3491"
       d="m 131.34222,235.29659 c -17.22033,-27.86239 2.39234,-33.76319 24.337,-7.3216 12.61997,15.2064 13.83377,24.38719 3.22428,24.38719 -9.35816,0 -21.76074,-7.67999 -27.56128,-17.06559 z m 257.3411,2.1712 c -5.0629,-8.192 -1.88781,-19.4176 7.05572,-24.94399 8.94355,-5.528 16.26099,1.168 16.26099,14.89439 0,28.10399 -9.60088,32.24159 -23.31671,10.0496 z M 257.7861,212.3622 c -5.06532,-13.2 -4.57479,-36.07855 1.09007,-50.84095 9.44143,-24.60399 12.43307,-24.70735 35.89974,-1.24 26.38829,26.38831 19.34999,76.08094 -10.77582,76.08094 -9.35237,0 -21.14865,-10.8 -26.21398,-23.99999 z"
       style="fill:#ffa3a3;fill-opacity:1" />
    <path
       inkscape:connector-curvature="0"
       id="path3489"
       d="m 187.1045,366.85335 c -23.3141,-18.8784 -32.7787,-39.04959 -26.27469,-55.99999 14.48657,-37.75038 35.16603,-32.78558 56.25902,13.5088 10.02387,21.99999 29.6045,39.99999 43.5125,39.99999 13.90801,0 20.83745,7.2 15.39874,15.99999 -15.02694,24.3136 -48.4615,19.2336 -88.89557,-13.50879 z m 128.89556,-2.4912 c 0,-8.8 7.2,-16 16,-16 8.79999,0 15.99999,7.2 15.99999,16 0,8.8 -7.2,15.99999 -15.99999,15.99999 -8.8,0 -16,-7.19999 -16,-15.99999 z m 11.22118,-58.62558 c 7.58811,-19.7744 4.37139,-23.2864 -12.50215,-13.6528 -18.39677,10.504 -18.91405,8.8736 -2.71903,-8.5744 23.42457,-25.23679 62.82541,2.392 44.8616,31.45759 -17.06121,27.60639 -40.92413,20.1744 -29.64042,-9.23039 z"
       style="fill:#ff7f7f;fill-opacity:1" />
    <path
       inkscape:connector-curvature="0"
       id="path3487"
       d="m 194.77693,398.22614 c -38.05011,-23.2032 -55.22389,-51.11039 -75.65966,-122.94716 -14.54008,-51.11199 -24.009626,-95.35789 -21.04343,-98.32413 2.9662,-2.96624 19.35239,7.38687 36.41375,23.00735 17.06138,15.61919 20.51047,21.19999 7.66466,12.4 -17.50005,-11.9888 -21.45001,-10.2336 -15.75407,6.99999 15.05662,45.55359 42.51088,33.08479 84.35079,-38.30878 23.43003,-39.98031 49.08844,-72.6915 57.01869,-72.6915 7.93027,0 31.15273,28.06191 51.60547,62.35966 l 37.18681,62.35902 37.98664,-30.75839 c 20.89267,-16.91856 40.41354,-28.33359 43.37973,-25.36735 2.96619,2.96624 -6.50334,47.21214 -21.04343,98.32413 -20.43576,71.83677 -37.60954,99.74396 -75.65966,122.94716 -27.07274,16.50879 -60.02315,30.01599 -73.22314,30.01599 -13.2,0 -46.15041,-13.5072 -73.22315,-30.01599 z m 119.00172,-49.16479 c 52.98474,-45.31998 56.79643,-92.78557 5.88219,-73.24797 -13.80631,5.29759 -31.62616,0.384 -39.59966,-10.9104 -11.48878,-16.2784 -16.18139,-16.3904 -22.61252,-0.544 -4.4634,11 -25.74121,19.99999 -47.28405,19.99999 -55.30883,0 -68.16008,45.97279 -23.06011,82.49118 48.02303,38.88799 62.84409,36.80479 126.67415,-17.792 z m 34.2214,15.3008 c 0,-8.8 -7.2,-16 -15.99999,-16 -8.8,0 -16,7.2 -16,16 0,8.8 7.2,15.99999 16,15.99999 8.79999,0 15.99999,-7.19999 15.99999,-15.99999 z m 63.99998,-136.94396 c 0,-13.71999 -7.31744,-20.42239 -16.26099,-14.89439 -8.94353,5.52639 -12.11862,16.75199 -7.05572,24.94399 13.71583,22.19199 23.31671,18.05439 23.31671,-10.0496 z M 310.69013,211.1206 c 5.32716,-13.88176 -1.83424,-36.75999 -15.91424,-50.83999 -23.46666,-23.46671 -26.45831,-23.36335 -35.89973,1.24 -12.47699,32.51455 1.73184,74.84158 25.12391,74.84158 9.35237,0 21.36289,-11.3584 26.69006,-25.24159 z"
       style="fill:#ff1f1f;fill-opacity:1" />
    <path
       inkscape:connector-curvature="0"
       id="path3485"
       d="M 186.71927,407.96213 C 144.04691,379.20534 126.39979,350.44375 102.67039,270.97818 86.150696,215.65659 76.767134,166.26157 81.818027,161.21069 c 5.050891,-5.05088 28.313853,3.3512 51.695473,18.67152 46.06913,30.18559 41.72729,32.81279 98.386,-59.52031 33.50093,-54.594059 38.70022,-54.594059 72.20116,0 56.6587,92.3331 52.31686,89.7059 98.386,59.52031 23.38161,-15.32032 46.64458,-23.7224 51.69547,-18.67152 5.05089,5.05088 -4.33267,54.4459 -20.85236,109.76749 -23.7294,79.46557 -41.37653,108.22716 -84.04889,136.98395 -67.70633,45.62719 -94.85528,45.62719 -162.56161,0 z m 154.50395,-9.73599 c 38.05012,-23.2032 55.2239,-51.11039 75.65966,-122.94716 14.54009,-51.11199 24.00962,-95.35789 21.04343,-98.32413 -2.96619,-2.96624 -22.48706,8.44879 -43.37973,25.36735 l -37.98664,30.75839 -37.18681,-62.35902 c -20.45274,-34.29775 -43.57062,-62.35966 -51.37305,-62.35966 -7.80243,0 -30.92031,28.06191 -51.37306,62.35966 l -37.1868,62.35902 -37.98665,-30.75839 c -20.89266,-16.91856 -40.41353,-28.33359 -43.37973,-25.36735 -2.966196,2.96624 6.50335,47.21214 21.04343,98.32413 20.43577,71.83677 37.60955,99.74396 75.65966,122.94716 27.07274,16.50879 60.02315,30.01599 73.22315,30.01599 13.19999,0 46.1504,-13.5072 73.22314,-30.01599 z M 220.56303,333.41336 c -20.58812,-38.46879 -21.15639,-53.77919 -1.54623,-41.65919 8.25913,5.104 22.65912,-3.4704 31.99999,-19.05599 16.25145,-27.11519 17.71525,-27.11519 33.9667,0 9.34087,15.58559 23.74086,24.15999 31.99999,19.05599 19.61009,-12.12 19.04182,3.1904 -1.54623,41.65919 -9.10975,17.02239 -30.45641,30.94879 -47.43717,30.94879 -16.98077,0 -38.32743,-13.9264 -47.43705,-30.94879 z"
       style="fill:#be0000;fill-opacity:1" />
    <path
       inkscape:connector-curvature="0"
       id="path3501"
       d="m 905.959,384.36214 c -19.90193,-25.37759 -19.33601,-25.94239 6.04087,-6.0416 15.4,12.0784 28,24.6784 28,28 0,13.16959 -13.13898,4.69279 -34.04087,-21.9584 z M 665.95907,368.36215 c -19.90193,-25.3776 -19.33601,-25.94239 6.04088,-6.0416 15.39999,12.0784 27.99999,24.67839 27.99999,27.99999 0,13.1696 -13.13897,4.6928 -34.04087,-21.95839 z M 929.3732,227.28699 c -5.29231,-13.79199 -1.4664,-33.23215 8.50214,-43.20063 13.49937,-13.49935 18.12452,-7.10031 18.12452,25.07584 0,48.13918 -11.97977,56.29278 -26.62666,18.12479 z M 827.9999,206.0742 c 0,-7.85904 10.43333,-18.29232 23.18515,-23.1856 15.49634,-5.94655 20.23468,-1.20799 14.28818,14.28816 -9.71148,25.30703 -37.47333,31.89903 -37.47333,8.89744 z M 649.95908,128.3619 c -19.90193,-25.37695 -19.33601,-25.94287 6.04087,-6.04096 15.4,12.0776 28,24.6776 28,28 0,13.16863 -13.13896,4.69295 -34.04087,-21.95904 z m 271.99991,-15.99999 c -19.90193,-25.376955 -19.33601,-25.942875 6.04088,-6.04096 15.39999,12.0776 27.99999,24.67759 27.99999,27.99999 0,13.16864 -13.13897,4.69296 -34.04087,-21.95903 z m -117.95908,-4 c -5.63054,-9.110399 8.1486,-15.999997 31.99999,-15.999997 23.85138,0 37.63053,6.889598 31.99999,15.999997 -5.4387,8.8 -19.8387,15.99999 -31.99999,15.99999 -12.16129,0 -26.56129,-7.19999 -31.99999,-15.99999 z"
       style="fill:#feffa3;fill-opacity:1" />
    <path
       inkscape:connector-curvature="0"
       id="path3499"
       d="m 699.87159,420.51573 c 13.05473,-15.72959 34.1414,-20.47199 61.95908,-13.9328 77.14676,18.1312 74.75974,37.77919 -4.58987,37.77919 -66.5493,0 -74.43788,-3.2784 -57.36921,-23.84639 z M 603.99997,291.12057 c 0,-79.34877 19.64772,-81.73597 37.77961,-4.5888 6.53801,27.81759 1.79572,48.90399 -13.93427,61.95838 -20.56648,17.0688 -23.84534,9.1808 -23.84534,-57.36958 z m 328.07822,57.36798 c -5.39563,-8.72959 -2.43949,-28.52959 6.56918,-43.99998 14.05033,-24.128 16.4486,-21.8704 16.86595,15.87359 0.5088,46.01119 -6.89195,54.89438 -23.43513,28.12639 z M 710.66661,337.69496 c -18.92793,-18.928 -11.32251,-85.33278 9.77323,-85.33278 32.06282,0 91.56007,47.37599 91.56007,72.90718 0,23.62879 -80.28551,33.47359 -101.3333,12.4256 z M 691.99994,108.36191 c -5.70668,-9.233599 9.11835,-15.896317 35.05572,-15.755037 34.89767,0.1904 39.57943,3.711999 20.94427,15.755037 -30.7406,19.86607 -43.72207,19.86607 -55.99999,0 z"
       style="fill:#f9ff69;fill-opacity:1" />
    <path
       inkscape:connector-curvature="0"
       id="path3497"
       d="m 614.47978,431.10133 c -40.08183,-44.28959 -37.98935,-291.36375 2.78004,-328.25958 44.28991,-40.081908 291.36446,-37.989428 328.26024,2.78 40.08182,44.28991 37.98934,291.36439 -2.78005,328.26038 -44.28991,40.08158 -291.36445,37.98878 -328.26023,-2.7808 z m 204.72012,-0.6736 c -31.16187,-28.56639 -99.15822,-34.21439 -119.32831,-9.912 -17.06867,20.56799 -9.18009,23.84639 57.36921,23.84639 44.78252,0 70.78105,-5.84799 61.9591,-13.93439 z m -39.08411,-54.46719 c 65.12268,-5.86399 63.69542,-6.42559 -15.17385,-5.97759 l -87.05796,0.496 0.49472,-87.05758 c 0.44816,-78.86877 -0.1136,-80.29597 -5.97731,-15.17439 -3.55963,39.53759 -18.60617,86.21277 -33.43676,103.72477 -21.97718,25.95039 -22.25325,28.21759 -1.49264,12.25439 33.00247,-25.37439 52.04026,-6.3376 26.66476,26.66559 -15.96282,20.76 -13.69614,20.4848 12.25467,-1.488 17.51209,-14.83039 64.188,-29.87679 103.72426,-33.43679 z m 152.54198,5.4656 c -5.80054,-9.38559 -18.20311,-17.06399 -27.56129,-17.06399 -10.60948,0 -9.39569,9.1808 3.22429,24.38559 21.94465,26.44319 41.55732,20.54239 24.337,-7.3216 z M 641.77958,286.53177 c -18.13189,-77.14717 -37.77961,-74.75997 -37.77961,4.5888 0,66.55038 3.27886,74.43838 23.84534,57.36958 15.72999,-13.05439 20.47228,-34.14079 13.93427,-61.95838 z m 313.73374,33.83039 c -0.41728,-37.74399 -2.81562,-40.00159 -16.86595,-15.87359 -9.00867,15.47039 -11.96481,35.27039 -6.56918,43.99998 16.54318,26.76799 23.94391,17.8848 23.43513,-28.12639 z m -143.51341,4.9072 c 0,-25.53119 -59.49725,-72.90718 -91.56007,-72.90718 -21.09574,0 -28.70116,66.40478 -9.77323,85.33278 21.04779,21.04799 101.3333,11.20319 101.3333,-12.4256 z m 62.9683,-146.15051 C 862.51496,164.11357 828.13614,157.25021 774.0408,158.96989 l -82.04086,2.60784 87.99998,9.39216 87.99997,9.392 7.37326,88.00029 7.37325,87.99997 5.55417,-77.24318 c 3.17006,-44.08638 -2.5528,-87.01165 -13.33236,-100.00012 z m 81.03165,30.04335 c 0,-32.17615 -4.62515,-38.57519 -18.12452,-25.07584 -9.96848,9.96848 -13.79445,29.40864 -8.50214,43.20063 14.64689,38.16799 26.62666,30.01439 26.62666,-18.12479 z m -95.99997,-4.8 c 0,-8.80032 -7.2,-16.00032 -15.99999,-16.00032 -8.8,0 -16,7.2 -16,16.00032 0,8.8 7.2,15.99999 16,15.99999 8.79999,0 15.99999,-7.19999 15.99999,-15.99999 z m 78.23815,-53.87742 c 13.73256,-16.54672 12.77792,-26.34096 -3.91801,-40.19727 -17.04377,-14.145118 -27.11614,-11.894079 -44.19728,9.87711 -19.6087,24.9928 -19.22806,25.94016 3.34927,8.33616 31.2454,-24.36271 53.00727,-7.22496 28.42992,22.38895 -9.80115,11.80976 -14.22029,21.47216 -9.82029,21.47216 4.4,0 16.17038,-9.84464 26.15639,-21.87711 z m -261.5802,-25.0584 c -5.80053,-9.38543 -18.2031,-17.06447 -27.56128,-17.06447 -10.60948,0 -9.39569,9.18048 3.22429,24.38671 21.94465,26.44159 41.55732,20.54079 24.33699,-7.32224 z m 71.34209,-17.06447 c 18.63516,-12.043038 13.9534,-15.564797 -20.94427,-15.755037 -25.93737,-0.144 -40.7624,6.521438 -35.05572,15.755037 12.27792,19.86607 25.25939,19.86607 55.99999,0 z m 119.99996,0 c 5.63054,-9.110399 -8.14861,-15.999997 -31.99999,-15.999997 -23.85139,0 -37.63053,6.889598 -31.99999,15.999997 5.4387,8.8 19.8387,15.99999 31.99999,15.99999 12.16129,0 26.56129,-7.19999 31.99999,-15.99999 z"
       style="fill:#f0e600;fill-opacity:1" />
    <path
       inkscape:connector-curvature="0"
       id="path3495"
       d="m 606.78899,439.33012 c -30.09315,-32.03199 -34.78901,-55.41278 -34.78901,-173.21114 0,-121.65884 3.94845,-139.88844 37.03121,-170.968108 32.03271,-30.09311 55.41286,-34.788949 173.21092,-34.788949 121.65956,0 139.88909,3.948479 170.96873,37.031189 30.09316,32.032788 34.78901,55.412938 34.78901,173.210668 0,121.65916 -3.94845,139.88955 -37.0312,170.96954 -32.03271,30.09279 -55.41287,34.78879 -173.21093,34.78879 -121.65956,0 -139.88909,-3.9488 -170.96873,-37.03199 z m 335.95102,-5.44799 c 40.76939,-36.89599 42.86187,-283.97047 2.78005,-328.26038 -36.89578,-40.769428 -283.97033,-42.861908 -328.26024,-2.78 -40.76939,36.89583 -42.86187,283.96999 -2.78004,328.25958 36.89578,40.76958 283.97032,42.86238 328.26023,2.7808 z M 735.99993,368.90135 c 24.19999,-3.6656 63.79998,-3.6656 87.99997,0 24.19999,3.6656 4.4,6.66559 -43.99998,6.66559 -48.39999,0 -68.19998,-2.99999 -43.99999,-6.66559 z M 672.79457,268.36218 c 0,-48.39999 2.99946,-68.19998 6.66544,-43.99999 3.666,24.19999 3.666,63.79998 0,87.99997 -3.66598,24.2 -6.66544,4.4 -6.66544,-43.99998 z m 207.99994,0 c 0,-48.39999 2.99945,-68.19998 6.66544,-43.99999 3.666,24.19999 3.666,63.79998 0,87.99997 -3.66599,24.2 -6.66544,4.4 -6.66544,-43.99998 z M 735.99993,160.90189 c 24.19999,-3.66608 63.79998,-3.66608 87.99997,0 24.19999,3.66592 4.4,6.66544 -43.99998,6.66544 -48.39999,0 -68.19998,-2.99952 -43.99999,-6.66544 z"
       style="fill:#9aa000;fill-opacity:1" />
    <path
       inkscape:connector-curvature="0"
       id="path3521"
       d="m 796.00665,820.37001 c -16.22601,-19.5504 -16.70461,-29.7104 -2.08826,-44.32639 22.86767,-22.86719 74.0815,3.2944 74.0815,37.84319 0,31.90559 -47.35483,36.17119 -71.99324,6.4832 z M 779.99992,716.36204 c 0,-8.8 7.19999,-16 15.99999,-16 8.8,0 16,7.2 16,16 0,8.8 -7.2,15.99999 -16,15.99999 -8.8,0 -15.99999,-7.19999 -15.99999,-15.99999 z"
       style="fill:#a3d2ff;fill-opacity:1" />
    <path
       inkscape:connector-curvature="0"
       id="path3519"
       d="m 708.91235,925.36997 c -29.08661,-32.14079 -22.23476,-65.00798 13.55205,-65.00798 29.42141,0 78.65092,58.77918 66.15862,78.99198 -16.09389,26.03999 -48.65959,20.32799 -79.71067,-13.984 z m 119.08755,-1.008 c 0,-8.79999 7.2,-15.99999 16,-15.99999 8.79999,0 15.99999,7.2 15.99999,15.99999 0,8.8 -7.2,16 -15.99999,16 -8.8,0 -16,-7.2 -16,-16 z M 691.34204,827.298 c -5.80053,-9.38559 -6.53598,-21.07519 -1.63432,-25.97759 13.16224,-13.16159 58.29221,7.384 58.29221,26.53919 0,21.7168 -43.15378,21.288 -56.65789,-0.56 z m 24.6579,-62.93598 c 0,-8.79999 7.19999,-15.99999 15.99999,-15.99999 8.8,0 16,7.2 16,15.99999 0,8.8 -7.2,16 -16,16 -8.8,0 -15.99999,-7.2 -15.99999,-16 z"
       style="fill:#7fc0ff;fill-opacity:1" />
    <path
       inkscape:connector-curvature="0"
       id="path3517"
       d="m 685.69203,941.94277 c -61.83339,-57.76158 -62.10272,-86.72158 -1.65152,-177.58075 26.34693,-39.59998 55.67447,-95.39997 65.17231,-123.99996 21.87236,-65.86238 39.70183,-65.86238 61.57419,0 9.49784,28.59999 38.82538,84.39998 65.17232,123.99996 26.34695,39.59999 47.93437,85.31198 47.97205,101.58077 0.10239,44.38399 -91.64583,122.41916 -143.93146,122.41916 -27.15017,0 -64.06867,-18.17119 -94.30789,-46.41918 z m 102.93099,-2.5888 c 12.4923,-20.2128 -36.73721,-78.99198 -66.15862,-78.99198 -35.78681,0 -42.63866,32.86719 -13.55205,65.00798 31.05108,34.31199 63.61678,40.02399 79.71067,13.984 z m 71.37687,-14.992 c 0,-8.79999 -7.2,-15.99999 -15.99999,-15.99999 -8.8,0 -16,7.2 -16,15.99999 0,8.8 7.2,16 16,16 8.79999,0 15.99999,-7.2 15.99999,-16 z M 747.99993,827.8596 c 0,-19.15519 -45.12997,-39.70078 -58.29221,-26.53919 -14.01137,14.0112 9.75441,43.04159 35.23649,43.04159 12.68065,0 23.05572,-7.4256 23.05572,-16.5024 z m 119.99996,-13.97279 c 0,-34.54879 -51.21383,-60.71038 -74.0815,-37.84319 -14.61635,14.61599 -14.13775,24.77599 2.08826,44.32639 24.63841,29.68799 71.99324,25.42239 71.99324,-6.4832 z M 747.99993,764.36202 c 0,-8.79999 -7.2,-15.99999 -16,-15.99999 -8.8,0 -15.99999,7.2 -15.99999,15.99999 0,8.8 7.19999,16 15.99999,16 8.8,0 16,-7.2 16,-16 z m 63.99998,-47.99998 c 0,-8.8 -7.2,-16 -16,-16 -8.8,0 -15.99999,7.2 -15.99999,16 0,8.8 7.19999,15.99999 15.99999,15.99999 8.8,0 16,-7.19999 16,-15.99999 z"
       style="fill:#1f90ff;fill-opacity:1" />
    <path
       inkscape:connector-curvature="0"
       id="path3515"
       d="m 677.13918,950.47237 c -31.42657,-29.6384 -57.13921,-66.80798 -57.13921,-82.59838 0,-15.79039 21.0542,-61.74078 46.78709,-102.11197 25.7329,-40.36958 58.91466,-103.99996 73.73725,-141.39995 14.82259,-37.39999 32.58662,-67.99998 39.47561,-67.99998 6.88899,0 24.65301,30.59999 39.4756,67.99998 14.82259,37.39999 48.00435,101.03037 73.73724,141.39995 25.7329,40.37119 46.78711,86.32158 46.78711,102.11197 0,45.26079 -106.94112,136.48791 -159.99995,136.48791 -29.93543,0 -65.44976,-18.60635 -102.86074,-53.88953 z m 197.16863,-8.5296 c 61.83339,-57.76158 62.10271,-86.72158 1.65152,-177.58075 -26.34694,-39.59998 -55.67448,-95.39997 -65.17232,-123.99996 -21.87236,-65.86238 -39.70183,-65.86238 -61.57419,0 -9.49784,28.59999 -38.82538,84.39998 -65.17231,123.99996 -26.34696,39.59999 -47.93437,85.31198 -47.97205,101.58077 -0.1024,44.38399 91.64582,122.41916 143.93146,122.41916 27.15016,0 64.06866,-18.17119 94.30789,-46.41918 z"
       style="fill:#0060be;fill-opacity:1" />
    <path
       inkscape:connector-curvature="0"
       id="path3511"
       d="m 284.00007,860.36199 c 0,-8.79999 7.2,-15.99999 16,-15.99999 8.79999,0 15.99999,7.2 15.99999,15.99999 0,8.8 -7.2,16 -15.99999,16 -8.8,0 -16,-7.2 -16,-16 z M 148.00011,748.36203 c -5.43869,-8.8 -2.68854,-16 6.11146,-16 8.79999,0 20.44983,7.2 25.88853,16 5.43871,8.8 2.68855,15.99999 -6.11145,15.99999 -8.8,0 -20.44984,-7.19999 -25.88854,-15.99999 z m 239.99993,0 c -5.4387,-8.8 -2.68854,-16 6.11145,-16 8.8,0 20.44984,7.2 25.88854,16 5.4387,8.8 2.68854,15.99999 -6.11146,15.99999 -8.79999,0 -20.44983,-7.19999 -25.88853,-15.99999 z M 268.00008,603.41807 c 0,-9.31999 7.19999,-12.49439 15.99999,-7.05599 8.8,5.43839 16,13.06399 16,16.94399 0,3.8816 -7.2,7.056 -16,7.056 -8.8,0 -15.99999,-7.6256 -15.99999,-16.944 z"
       style="fill:#a5ffa3;fill-opacity:1" />
    <path
       inkscape:connector-curvature="0"
       id="path3509"
       d="m 243.34218,939.29797 c -5.80053,-9.3856 -6.70448,-20.90719 -2.00877,-25.60319 11.46101,-11.4608 42.66666,8.73439 42.66666,27.61119 0,20.44799 -27.62257,19.08319 -40.65789,-2.008 z M 108.00013,796.36201 c 0,-8.79999 7.19999,-15.99999 15.99999,-15.99999 8.8,0 16,7.2 16,15.99999 0,8.8 -7.2,16 -16,16 -8.8,0 -15.99999,-7.2 -15.99999,-16 z m 239.99992,0 c 0,-8.79999 7.2,-15.99999 16,-15.99999 8.79999,0 15.99999,7.2 15.99999,15.99999 0,8.8 -7.2,16 -15.99999,16 -8.8,0 -16,-7.2 -16,-16 z M 220.00009,691.02925 c 0,-28.256 34.44413,-23.3344 44.33332,6.33279 3.48334,10.4496 -5.06666,19 -19,19 -13.93332,0 -25.33332,-11.4 -25.33332,-25.33279 z"
       style="fill:#7fff7f;fill-opacity:1" />
    <path
       inkscape:connector-curvature="0"
       id="path3507"
       d="M 221.30503,950.47397 C 177.5595,879.69159 179.27527,847.6516 228.00009,825.45 c 48.94821,-22.30079 119.99996,4.1536 119.99996,44.67999 0,31.76639 -61.06756,134.23191 -79.99997,134.23191 -7.36456,0 -28.37732,-24.24954 -46.69505,-53.88793 z m 62.69504,-9.168 c 0,-18.8768 -31.20565,-39.07199 -42.66666,-27.61119 -11.46099,11.46079 8.73318,42.66718 27.61094,42.66718 8.28065,0 15.05572,-6.77439 15.05572,-15.05599 z m 31.99999,-80.94398 c 0,-8.79999 -7.2,-15.99999 -15.99999,-15.99999 -8.8,0 -16,7.2 -16,15.99999 0,8.8 7.2,16 16,16 8.79999,0 15.99999,-7.2 15.99999,-16 z M 88.000132,816.23081 c -54.90316,-34.03999 -54.747019,-38.62079 2.468673,-72.41918 60.242875,-35.58559 86.083735,-34.61919 121.531285,4.5504 27.94612,30.87999 27.94612,33.11999 0,63.99998 -35.15026,38.83999 -66.03915,39.80479 -123.999958,3.8688 z m 51.999988,-19.8688 c 0,-8.79999 -7.2,-15.99999 -16,-15.99999 -8.8,0 -15.99999,7.2 -15.99999,15.99999 0,8.8 7.19999,16 15.99999,16 8.8,0 16,-7.2 16,-16 z m 39.99998,-47.99998 c -5.4387,-8.8 -17.08854,-16 -25.88853,-16 -8.8,0 -11.55015,7.2 -6.11146,16 5.4387,8.8 17.08854,15.99999 25.88854,15.99999 8.8,0 11.55016,-7.19999 6.11145,-15.99999 z m 143.4889,63.43518 c -28.70698,-31.71999 -28.57288,-33.46239 5.17479,-67.20958 29.10344,-29.10399 41.73907,-32.02879 78.99083,-18.28159 24.38996,9.00159 42.63177,24.58559 40.53734,34.63518 -2.12024,10.1712 6.74425,14.2192 19.99999,9.1328 42.10946,-16.15839 25.35297,18.4752 -22.6606,46.83839 -60.42787,35.69599 -86.08231,34.62079 -122.04235,-5.1152 z m 56.51104,-15.4352 c 0,-8.79999 -7.2,-15.99999 -15.99999,-15.99999 -8.8,0 -16,7.2 -16,15.99999 0,8.8 7.2,16 16,16 8.79999,0 15.99999,-7.2 15.99999,-16 z m 39.99999,-47.99998 c -5.4387,-8.8 -17.08854,-16 -25.88854,-16 -8.79999,0 -11.55015,7.2 -6.11145,16 5.4387,8.8 17.08854,15.99999 25.88853,15.99999 8.8,0 11.55016,-7.19999 6.11146,-15.99999 z m -207.3012,-21.5104 c -34.68841,-25.36479 -26.02031,-76.98877 23.25364,-138.48955 l 32.04761,-39.99999 32.0476,39.99999 c 49.27395,61.50078 57.94205,113.12476 23.25364,138.48955 -37.35389,27.3136 -73.2486,27.3136 -110.60249,0 z m 51.63458,-29.48959 c -9.88919,-29.66719 -44.33332,-34.58879 -44.33332,-6.33279 0,13.93279 11.4,25.33279 25.33332,25.33279 13.93334,0 22.48334,-8.5504 19,-19 z m 35.66666,-84.05597 c 0,-3.88 -7.2,-11.5056 -16,-16.94399 -8.8,-5.4384 -15.99999,-2.264 -15.99999,7.05599 0,9.3184 7.19999,16.944 15.99999,16.944 8.8,0 16,-3.1744 16,-7.056 z"
       style="fill:#1fff55;fill-opacity:1" />
    <path
       inkscape:connector-curvature="0"
       id="path3505"
       d="m 212.57691,960.64836 c -22.31724,-32.84319 -40.91284,-67.04318 -41.32355,-75.99997 -0.4107,-8.9584 -31.0107,-31.16959 -67.99998,-49.35999 -36.989276,-18.19039 -67.253231,-42.90719 -67.253231,-54.92638 0,-12.0192 29.978416,-36.73599 66.618701,-54.92638 36.64029,-18.1904 70.68673,-47.47359 75.65874,-65.07358 4.97203,-17.6 27.19359,-53.59999 49.38127,-79.99998 l 40.34122,-47.99998 40.34122,47.99998 c 22.18767,26.39999 44.40923,62.39998 49.38126,79.99998 4.97201,17.59999 39.01845,46.88318 75.65874,65.07358 36.64028,18.19039 66.6187,42.90718 66.6187,54.92638 0,12.01919 -30.26396,36.73599 -67.25322,54.92638 -36.98929,18.1904 -67.58928,40.40159 -67.99998,49.35999 -1.15072,25.09439 -80.00791,135.71351 -96.74672,135.71351 -8.16551,0 -33.10593,-26.87195 -55.42317,-59.71354 z M 314.69512,950.47397 C 358.44066,879.69159 356.72488,847.6516 308.00006,825.45 259.05185,803.14921 188.0001,829.6036 188.0001,870.12999 c 0,31.76639 61.06757,134.23191 79.99998,134.23191 7.36455,0 28.37732,-24.24954 46.69504,-53.88793 z M 212.00009,812.36201 c 27.94612,-30.87999 27.94612,-33.11999 0,-63.99998 -35.44755,-39.16959 -61.28841,-40.13599 -121.531285,-4.5504 -57.215692,33.79839 -57.371833,38.37919 -2.468673,72.41918 57.960808,35.93599 88.849698,34.97119 123.999958,-3.8688 z m 233.53126,4.5504 c 25.55777,-15.0976 46.46866,-31.54559 46.46866,-36.55039 0,-14.1968 -90.26055,-63.99998 -115.98883,-63.99998 -12.67835,0 -36.08335,14.39999 -52.01112,31.99999 -27.94612,30.87999 -27.94612,33.11999 0,63.99998 35.44756,39.16959 61.28841,40.13599 121.53129,4.5504 z M 284.00007,780.36202 c 0,-8.8 -7.2,-16 -15.99999,-16 -8.8,0 -16,7.2 -16,16 0,8.8 7.2,15.99999 16,15.99999 8.79999,0 15.99999,-7.19999 15.99999,-15.99999 z m 39.30125,-53.51039 c 34.68841,-25.36479 26.02031,-76.98877 -23.25364,-138.48955 l -32.0476,-39.99999 -32.04761,39.99999 c -49.27395,61.50078 -57.94205,113.12476 -23.25364,138.48955 37.35389,27.3136 73.2486,27.3136 110.60249,0 z"
       style="fill:#0abe00;fill-opacity:1" />
  </g>
</svg>
